<?xml version="1.0" standalone="no"?>
<!DOCTYPE svg PUBLIC "-//W3C//DTD SVG 20010904//EN"
 "http://www.w3.org/TR/2001/REC-SVG-20010904/DTD/svg10.dtd">
<svg version="1.0" xmlns="http://www.w3.org/2000/svg"
 width="600.000000pt" height="620.000000pt" viewBox="0 0 600.000000 620.000000"
 preserveAspectRatio="xMidYMid meet">

<g transform="translate(0.000000,620.000000) scale(0.100000,-0.100000)"
fill="#000000" stroke="none">
<path d="M3550 5603 c-132 -13 -334 -74 -463 -139 -76 -39 -144 -97 -189 -161
-17 -26 -37 -43 -48 -43 -11 0 -52 30 -92 66 -236 213 -507 259 -823 138 -177
-68 -333 -173 -503 -338 -208 -202 -247 -295 -271 -652 -4 -73 -11 -136 -15
-142 -3 -6 -37 -20 -74 -32 -145 -47 -306 -153 -419 -274 -194 -208 -264 -481
-182 -702 63 -169 250 -355 468 -468 97 -50 400 -162 585 -216 142 -41 264
-66 418 -85 115 -14 158 -22 158 -30 0 -1 -16 -37 -36 -81 -58 -125 -73 -178
-89 -321 -9 -73 -21 -164 -28 -201 l-12 -67 -46 -5 c-115 -13 -156 -94 -181
-355 -10 -96 -8 -131 11 -279 23 -177 21 -196 -21 -196 -34 0 -116 -49 -144
-85 -18 -24 -29 -52 -32 -85 -4 -44 -2 -52 25 -79 17 -16 46 -32 65 -36 19 -4
243 9 499 29 636 48 785 55 1464 60 598 5 853 17 890 41 21 13 55 103 55 147
0 51 -68 108 -130 108 -41 0 -46 16 -32 114 37 255 44 336 39 466 -7 178 -20
232 -63 276 -30 29 -41 34 -83 34 -27 0 -53 6 -59 13 -5 6 -22 58 -36 113 -30
121 -59 207 -97 293 -32 70 -35 91 -16 91 6 0 57 7 112 15 339 48 660 163 899
322 111 74 281 233 357 332 116 153 176 327 165 473 -8 92 -47 233 -84 301
-38 71 -124 145 -238 204 -121 63 -196 88 -310 107 -57 9 -92 20 -100 30 -6 9
-15 44 -18 79 -55 488 -346 934 -732 1119 -173 83 -369 119 -544 101z m429
-123 c80 -11 146 -43 252 -123 154 -117 254 -245 354 -452 102 -214 148 -367
158 -533 4 -63 2 -74 -14 -83 -24 -12 -24 -35 -1 -48 9 -5 73 -21 142 -35 242
-51 262 -56 333 -90 83 -38 183 -111 227 -164 43 -52 70 -146 70 -246 0 -191
-76 -333 -283 -533 -206 -198 -412 -307 -735 -387 -823 -206 -1872 -252 -2672
-120 -513 85 -836 217 -1064 434 -142 134 -198 252 -198 409 0 187 76 354 229
507 94 93 137 119 248 155 54 17 106 40 116 50 11 11 28 19 38 19 30 0 36 18
38 115 1 90 49 341 76 408 23 53 136 196 233 293 282 282 673 409 974 318 111
-33 168 -71 282 -186 59 -60 114 -108 121 -106 8 2 38 32 68 68 147 173 359
284 624 325 96 16 296 18 384 5z m-2038 -70 c-13 -11 -32 -20 -44 -20 -24 0
-21 4 18 24 41 22 55 19 26 -4z m1192 -24 c3 -12 -30 -32 -39 -24 -11 12 5 40
21 36 9 -2 17 -7 18 -12z m-1528 -176 c-10 -11 -23 -20 -28 -20 -6 0 -2 9 8
20 10 11 23 20 28 20 6 0 2 -9 -8 -20z m1317 -22 c-15 -15 -26 -4 -18 18 5 13
9 15 18 6 9 -9 9 -15 0 -24z m2552 -1835 c-64 -112 -133 -199 -233 -296 -281
-271 -642 -428 -1130 -492 -86 -11 -117 -12 -128 -3 -23 19 -2 27 128 48 282
46 500 108 676 190 290 136 529 328 648 519 53 86 85 113 39 34z m-1558 -808
c1 -16 20 -64 42 -105 100 -184 156 -465 169 -840 4 -138 2 -195 -11 -270 -26
-149 -77 -330 -95 -339 -27 -14 -261 -23 -261 -10 0 6 13 57 29 113 85 292 80
489 -17 681 -97 193 -294 376 -467 434 -83 27 -212 36 -319 22 -212 -29 -355
-126 -492 -337 -95 -145 -131 -259 -154 -488 -15 -144 -9 -254 20 -361 36
-130 45 -119 -103 -129 -84 -5 -132 -5 -139 2 -15 15 -68 641 -68 803 0 100
23 263 54 391 31 126 120 396 135 411 7 7 168 12 503 13 344 2 589 9 808 22
173 11 326 19 340 18 21 -1 25 -6 26 -31z m-1865 -291 c-23 -95 -29 -110 -30
-77 -1 40 46 210 55 201 2 -3 -9 -58 -25 -124z m1139 -101 c450 -125 673 -529
550 -998 -17 -66 -39 -136 -48 -155 l-17 -35 -215 -7 c-118 -4 -309 -12 -425
-18 -115 -5 -285 -10 -377 -10 l-166 0 -6 28 c-42 220 -46 512 -7 656 95 357
342 584 606 559 28 -2 75 -11 105 -20z m-1184 -226 c-7 -85 -11 -97 -25 -81
-12 13 9 175 22 167 6 -3 7 -36 3 -86z m2298 -72 c31 -63 32 -194 1 -490 -15
-143 -27 -275 -28 -293 -1 -47 14 -58 62 -44 41 13 82 5 96 -19 14 -22 -21
-29 -153 -29 -122 0 -133 1 -128 18 52 169 70 319 71 577 0 127 -3 249 -8 272
-5 32 -3 45 9 58 14 14 19 14 38 2 11 -7 30 -31 40 -52z m-2482 -103 c-54 -96
-65 -268 -38 -567 7 -77 9 -144 5 -149 -9 -10 -13 14 -34 179 -31 243 -7 479
56 559 30 38 37 24 11 -22z m175 -227 c6 -137 19 -333 29 -433 14 -150 15
-185 4 -192 -18 -11 -196 -38 -305 -46 l-90 -7 16 24 c39 59 121 95 175 76 12
-4 27 -2 39 6 18 14 18 18 -1 163 -25 201 -26 476 -1 556 19 63 65 111 101
106 20 -3 21 -11 33 -253z m407 -400 c5 -58 4 -86 -2 -80 -22 23 -43 261 -24
279 7 8 15 -47 26 -199z m1984 -235 c-50 -15 -513 -30 -988 -33 -658 -3 -485
8 575 36 220 6 438 5 413 -3z m-2804 -99 c-8 -10 -24 14 -24 37 l1 27 13 -30
c7 -16 12 -32 10 -34z"/>
<path d="M3592 5209 c-65 -11 -144 -48 -194 -89 -51 -42 -140 -179 -178 -274
-46 -114 -63 -219 -58 -353 4 -104 7 -116 41 -186 49 -98 119 -163 241 -222
113 -54 206 -75 333 -75 83 0 106 4 150 24 105 49 205 170 244 295 33 109 69
304 69 378 0 222 -142 420 -348 483 -77 24 -223 33 -300 19z m253 -61 c129
-27 245 -112 290 -211 52 -113 58 -310 16 -472 -28 -103 -98 -247 -150 -307
-62 -70 -126 -98 -226 -98 -159 0 -284 36 -407 117 -49 33 -54 51 -23 83 38
40 35 92 -9 136 -31 31 -38 34 -75 28 -39 -6 -40 -6 -47 30 -10 58 13 237 43
327 50 152 159 286 278 343 95 45 183 52 310 24z"/>
<path d="M2204 5125 c-307 -67 -495 -310 -511 -661 -9 -190 40 -329 157 -443
103 -101 229 -159 388 -181 197 -26 406 50 510 185 56 74 150 275 173 370 50
210 -11 463 -149 616 -57 64 -113 96 -198 114 -85 18 -287 18 -370 0z m404
-56 c99 -22 175 -109 230 -262 57 -156 61 -305 13 -457 -31 -96 -31 -96 -88
-82 -69 18 -84 9 -107 -62 -9 -27 12 -84 35 -96 28 -15 24 -37 -16 -86 -64
-78 -242 -144 -388 -144 -131 0 -309 73 -404 167 -270 263 -127 868 235 995
116 41 369 55 490 27z"/>
<path d="M4564 4165 c-22 -9 -39 -29 -58 -66 -34 -70 -35 -156 0 -304 43 -186
43 -179 -7 -211 -66 -42 -251 -123 -464 -203 -104 -40 -212 -81 -240 -91 -141
-54 -364 -110 -520 -132 -154 -21 -611 -13 -707 13 -20 5 -40 8 -45 7 -10 -2
-91 9 -153 22 -25 5 -81 17 -125 26 -255 51 -801 230 -855 279 -15 14 -17 31
-12 148 6 163 -9 228 -62 275 -49 43 -86 49 -141 22 -52 -25 -89 -69 -102
-120 l-9 -35 -60 0 c-103 0 -164 -53 -172 -149 -5 -66 5 -98 55 -174 75 -113
296 -317 375 -345 27 -10 37 14 67 163 16 78 34 147 40 153 7 7 36 -1 93 -26
178 -76 382 -148 453 -161 22 -4 45 -11 50 -16 6 -4 46 -15 90 -24 44 -10 91
-21 105 -26 14 -6 41 -12 60 -14 19 -2 53 -9 75 -15 22 -5 60 -13 85 -16 25
-3 72 -10 105 -16 33 -6 85 -12 115 -15 30 -3 62 -7 70 -10 8 -4 103 -10 210
-14 159 -6 228 -4 378 11 100 10 190 23 200 28 9 5 40 12 67 16 28 4 66 13 85
21 19 7 96 31 170 55 74 23 140 45 145 49 6 3 39 17 75 30 92 32 294 118 434
184 81 38 122 53 126 45 7 -10 20 -95 36 -223 4 -34 25 -65 46 -66 10 0 344
503 379 571 70 140 54 254 -43 305 -15 8 -39 14 -53 14 -36 0 -99 -34 -125
-67 -13 -17 -23 -23 -26 -16 -3 6 -18 29 -33 51 -44 60 -124 90 -177 67z m138
-82 c26 -25 38 -52 52 -115 7 -32 43 -39 53 -10 14 38 58 94 84 108 40 20 64
18 96 -10 25 -21 28 -31 26 -78 -1 -29 -9 -73 -18 -98 -20 -57 -335 -532 -349
-527 -11 4 -34 126 -35 189 -1 32 5 41 52 79 76 62 177 162 177 175 0 6 -7 17
-15 24 -12 10 -31 -3 -111 -79 -54 -51 -104 -91 -113 -89 -21 4 -61 166 -68
280 -5 75 -3 92 16 131 35 72 91 79 153 20z m-3407 -188 c14 -13 25 -30 25
-37 1 -7 5 -46 9 -86 8 -67 -2 -212 -15 -234 -3 -5 -35 12 -70 37 -36 25 -69
45 -74 45 -23 0 -6 -20 51 -61 104 -75 99 -58 69 -214 -24 -122 -35 -155 -51
-155 -6 0 -56 39 -112 87 -108 94 -220 233 -237 296 -14 48 2 110 36 144 27
26 25 26 164 11 23 -3 25 1 30 44 7 54 31 92 80 126 42 28 65 28 95 -3z"/>
<path d="M5134 3635 c-4 -9 -2 -21 4 -27 15 -15 44 -1 40 19 -4 23 -36 29 -44
8z"/>
<path d="M5382 3508 c2 -13 10 -23 18 -23 8 0 16 10 18 23 3 17 -2 22 -18 22
-16 0 -21 -5 -18 -22z"/>
<path d="M5114 3405 c-4 -9 -2 -21 4 -27 15 -15 44 -1 40 19 -4 23 -36 29 -44
8z"/>
<path d="M4911 3336 c-16 -19 -6 -36 20 -36 15 0 20 6 17 22 -4 27 -21 33 -37
14z"/>
<path d="M2210 2015 c-10 -11 -10 -19 -2 -27 15 -15 44 -2 40 19 -4 23 -22 27
-38 8z"/>
<path d="M2150 1760 c0 -24 29 -38 40 -20 12 19 1 40 -21 40 -12 0 -19 -7 -19
-20z"/>
<path d="M2292 100 c0 -40 2 -47 7 -26 9 42 29 44 34 4 l5 -33 -2 35 c-1 24
-6 35 -16 35 -8 0 -18 9 -22 20 -3 11 -6 -4 -6 -35z"/>
<path d="M2893 100 c0 -30 1 -47 4 -37 5 18 5 18 25 0 21 -18 21 -18 9 5 -10
19 -10 27 1 40 10 13 8 13 -9 -1 -21 -19 -22 -19 -26 15 -2 20 -4 11 -4 -22z"/>
<path d="M3327 143 c-4 -3 -7 -11 -7 -17 0 -6 5 -5 12 2 17 17 28 15 28 -6 0
-11 -9 -27 -20 -37 -28 -26 -25 -35 13 -34 29 1 30 2 7 8 -18 5 -21 9 -12 15
20 12 31 49 20 64 -11 13 -31 16 -41 5z"/>
<path d="M3409 133 c-12 -15 -12 -16 4 -10 14 5 17 1 17 -27 0 -19 -6 -37 -12
-39 -7 -3 1 -5 17 -5 17 0 24 2 18 5 -8 3 -13 23 -13 49 0 47 -9 55 -31 27z"/>
<path d="M3487 143 c-12 -21 -6 -84 9 -90 26 -10 44 18 35 57 -6 32 -33 52
-44 33z m33 -19 c0 -9 -5 -14 -12 -12 -18 6 -21 28 -4 28 9 0 16 -7 16 -16z
m5 -44 c0 -8 -8 -16 -17 -18 -13 -2 -18 3 -18 18 0 15 5 20 18 18 9 -2 17 -10
17 -18z"/>
<path d="M3572 117 l-22 -32 25 -3 c15 -2 25 -10 26 -20 0 -15 1 -15 8 1 8 21
2 87 -8 87 -3 0 -16 -15 -29 -33z m28 -7 c0 -11 -7 -20 -15 -20 -18 0 -19 12
-3 28 16 16 18 15 18 -8z"/>
<path d="M3647 143 c-4 -3 -7 -11 -7 -17 0 -6 5 -5 12 2 16 16 28 15 28 -3 0
-8 -5 -15 -12 -15 -6 0 -4 -6 7 -13 10 -8 15 -19 11 -25 -10 -16 -33 -15 -39
1 -4 9 -6 9 -6 -1 -1 -20 29 -26 46 -9 13 13 14 19 4 31 -8 10 -9 16 -1 21 8
5 8 11 -1 21 -12 15 -31 18 -42 7z"/>
<path d="M3727 144 c-4 -4 -7 -12 -7 -18 0 -6 5 -5 12 2 17 17 28 15 28 -6 0
-11 -9 -27 -20 -37 -28 -26 -25 -35 13 -34 24 1 27 3 9 6 -22 4 -23 6 -7 23
20 22 16 64 -5 68 -9 1 -19 0 -23 -4z"/>
<path d="M3800 125 c-11 -29 3 -75 23 -75 21 0 37 22 37 50 0 50 -44 68 -60
25z m45 -26 c0 -24 -5 -34 -15 -34 -16 0 -25 37 -16 62 10 26 31 8 31 -28z"/>
<path d="M3892 117 l-22 -32 25 -3 c15 -2 25 -10 26 -20 0 -15 1 -15 8 1 8 21
2 87 -8 87 -3 0 -16 -15 -29 -33z m28 -7 c0 -11 -7 -20 -15 -20 -18 0 -19 12
-3 28 16 16 18 15 18 -8z"/>
<path d="M3967 144 c-4 -4 -7 -12 -7 -18 0 -6 5 -5 12 2 16 16 28 15 28 -3 0
-8 -5 -15 -12 -15 -6 0 -4 -6 7 -13 10 -8 15 -19 11 -25 -10 -16 -33 -15 -39
1 -4 9 -6 9 -6 -1 -1 -19 29 -27 44 -11 10 10 12 25 6 49 -6 33 -28 49 -44 34z"/>
<path d="M4062 143 l28 -4 -20 -39 c-28 -56 -24 -64 5 -10 31 58 31 60 -7 59
-31 -2 -31 -2 -6 -6z"/>
<path d="M2433 129 c-14 -14 -1 -71 17 -77 12 -4 13 -2 3 9 -7 7 -13 21 -13
30 0 10 6 20 13 22 9 4 9 6 -1 6 -7 1 -10 6 -7 11 8 13 2 13 -12 -1z"/>
<path d="M2477 124 c-9 -10 9 -68 23 -72 12 -4 13 -2 3 9 -16 17 -17 46 -1 51
8 3 6 6 -4 10 -9 4 -18 5 -21 2z"/>
<path d="M1903 85 c10 -35 27 -48 27 -20 0 8 -4 15 -10 15 -5 0 -10 9 -10 20
0 11 -4 20 -9 20 -5 0 -4 -15 2 -35z"/>
<path d="M1936 111 c-5 -7 -4 -16 1 -20 5 -3 13 -15 17 -26 8 -18 10 -16 24
15 l15 35 10 -32 c10 -34 27 -45 27 -18 0 8 -4 15 -10 15 -5 0 -10 9 -10 21 0
29 -33 21 -40 -11 l-6 -25 -10 30 c-7 21 -13 25 -18 16z"/>
<path d="M2036 111 c-5 -7 -4 -16 1 -20 5 -3 13 -15 17 -26 8 -18 10 -16 24
15 l15 35 10 -32 c10 -34 27 -45 27 -18 0 8 -4 15 -10 15 -5 0 -10 9 -10 21 0
29 -33 21 -40 -11 l-6 -25 -10 30 c-7 21 -13 25 -18 16z"/>
<path d="M2135 110 c-4 -7 -3 -15 2 -19 5 -3 13 -15 17 -26 6 -17 9 -17 15 -5
17 30 24 63 12 56 -6 -4 -11 -17 -12 -29 -1 -19 -2 -19 -13 7 -9 20 -16 25
-21 16z"/>
<path d="M2234 108 c-4 -6 0 -16 9 -23 22 -16 21 -22 0 -28 -16 -4 -16 -5 -1
-6 26 -2 33 20 12 36 -16 12 -17 15 -4 23 9 6 10 10 3 10 -6 0 -15 -5 -19 -12z"/>
<path d="M2364 91 c0 -21 7 -36 16 -38 10 -3 11 -2 3 4 -6 4 -13 22 -16 38 -4
27 -5 27 -3 -4z"/>
<path d="M2403 85 c0 -22 2 -30 4 -17 2 12 2 30 0 40 -3 9 -5 -1 -4 -23z"/>
<path d="M2534 106 c-11 -28 0 -51 26 -53 22 -1 22 -1 3 4 -29 6 -30 23 -2 23
14 0 19 5 17 17 -4 23 -36 29 -44 9z m36 -6 c0 -5 -7 -10 -15 -10 -8 0 -15 5
-15 10 0 6 7 10 15 10 8 0 15 -4 15 -10z"/>
<path d="M2601 81 c1 -28 3 -30 6 -11 3 14 9 30 14 36 5 7 3 11 -6 11 -11 0
-15 -11 -14 -36z"/>
<path d="M2654 108 c-4 -6 0 -16 9 -23 22 -16 21 -22 0 -28 -16 -4 -16 -5 -1
-6 26 -2 33 20 12 36 -16 12 -17 15 -4 23 9 6 10 10 3 10 -6 0 -15 -5 -19 -12z"/>
<path d="M2709 88 c4 -17 13 -34 21 -36 12 -4 13 -2 3 9 -7 7 -13 21 -13 30 0
10 6 20 13 22 6 3 2 6 -9 6 -19 1 -21 -3 -15 -31z"/>
<path d="M2767 114 c-13 -13 -7 -55 9 -61 24 -9 51 23 38 45 -12 19 -36 27
-47 16z m38 -29 c0 -11 -8 -21 -17 -23 -14 -3 -18 3 -18 23 0 20 4 26 18 23 9
-2 17 -12 17 -23z"/>
<path d="M2834 106 c-9 -23 0 -51 16 -52 9 0 10 1 3 3 -20 7 -16 51 5 56 16 4
16 5 -1 6 -10 0 -20 -5 -23 -13z"/>
<path d="M2994 106 c-9 -23 0 -51 16 -52 9 0 10 1 3 3 -20 7 -16 51 5 56 16 4
16 5 -1 6 -10 0 -20 -5 -23 -13z"/>
<path d="M3057 114 c-13 -13 -7 -55 9 -61 24 -9 51 23 38 45 -12 19 -36 27
-47 16z m37 -13 c9 -14 -4 -41 -20 -41 -8 0 -14 10 -14 25 0 25 23 35 34 16z"/>
<path d="M3123 85 c0 -22 2 -30 4 -17 2 12 2 30 0 40 -3 9 -5 -1 -4 -23z"/>
<path d="M3147 112 c6 -4 13 -21 16 -37 l4 -30 2 33 c1 41 23 39 33 -4 6 -27
6 -27 5 6 -2 32 -4 35 -36 37 -19 1 -30 -2 -24 -5z"/>
</g>
</svg>
